<?xml version="1.0" encoding="UTF-8"?>
<svg width="800px" height="800px" viewBox="0 0 800 800" version="1.1" xmlns="http://www.w3.org/2000/svg" xmlns:xlink="http://www.w3.org/1999/xlink">
    <!-- Generator: Sketch 61 (89581) - https://sketch.com -->
    <title>画板</title>
    <desc>Created with Sketch.</desc>
    <defs>
        <rect id="path-1" x="0" y="0" width="800" height="800"></rect>
    </defs>
    <g id="页面-1" stroke="none" stroke-width="1" fill="none" fill-rule="evenodd">
        <g id="画板">
            <g id="编组-3">
                <mask id="mask-2" fill="white">
                    <use xlink:href="#path-1"></use>
                </mask>
                <g id="矩形"></g>
                <g id="编组-2" mask="url(#mask-2)">
                    <g transform="translate(59.000000, 182.000000)">
                        <path d="M323.246094,816.136456 C449.719301,816.136456 552.246094,760.278588 552.246094,658.068228 C552.246094,555.857868 449.719301,446 323.246094,446 C196.772886,446 94.2460938,555.857868 94.2460938,658.068228 C94.2460938,760.278588 196.772886,816.136456 323.246094,816.136456 Z" id="椭圆形" stroke="#573117" stroke-width="14" fill="#C38000"></path>
                        <ellipse id="椭圆形" stroke="none" fill="#F9EBD3" cx="327.746094" cy="663" rx="125.5" ry="100"></ellipse>
                        <g id="编组" stroke="none" stroke-width="1" fill="none">
                            <g id="椭圆形-2" transform="translate(97.746094, 100.500000) scale(-1, 1) translate(-97.746094, -100.500000) translate(0.246094, 0.000000)" stroke="#573117" stroke-width="14">
                                <ellipse id="椭圆形" fill="#C38000" cx="97.5" cy="100.5" rx="104.5" ry="107.5"></ellipse>
                                <path d="M167.746094,68 C176.845725,68 185.797922,69.1982197 194.442463,71.541408 L198.540748,72.6522888 L199.449088,76.8001698 C201.139561,84.5196202 202,92.4538907 202,100.5 C202,159.823933 155.262025,208 97.5,208 C88.4003685,208 79.4481715,206.80178 70.8036309,204.458592 L66.7053457,203.347711 L65.7970062,199.19983 C64.1065331,191.48038 63.2460938,183.546109 63.2460938,175.5 C63.2460938,116.176067 109.984069,68 167.746094,68 Z" id="形状结合" fill="#FDC900"></path>
                            </g>
                            <g id="椭圆形-2" transform="translate(492.246094, 0.000000)" stroke="#573117" stroke-width="14">
                                <ellipse id="椭圆形" fill="#C38000" cx="97.5" cy="100.5" rx="104.5" ry="107.5"></ellipse>
                                <path d="M167.746094,68 C176.845725,68 185.797922,69.1982197 194.442463,71.541408 L198.540748,72.6522888 L199.449088,76.8001698 C201.139561,84.5196202 202,92.4538907 202,100.5 C202,159.823933 155.262025,208 97.5,208 C88.4003685,208 79.4481715,206.80178 70.8036309,204.458592 L66.7053457,203.347711 L65.7970062,199.19983 C64.1065331,191.48038 63.2460938,183.546109 63.2460938,175.5 C63.2460938,116.176067 109.984069,68 167.746094,68 Z" id="形状结合" fill="#FDC900"></path>
                            </g>
                            <path d="M333.746094,531 C505.230509,531 647,481.546875 647,324.578125 C647,167.609375 505.230509,44 333.746094,44 C162.261679,44 26,167.609375 26,324.578125 C26,481.546875 162.261679,531 333.746094,531 Z" id="椭圆形" stroke="#573117" stroke-width="14" fill="#C38000"></path>
                            <ellipse id="椭圆形" fill="#F5896E" opacity="0.62765067" cx="159.246094" cy="405.5" rx="58" ry="28.5"></ellipse>
                            <ellipse id="椭圆形备份-2" fill="#F5896E" opacity="0.62765067" cx="519.246094" cy="405.5" rx="58" ry="28.5"></ellipse>
                            <circle id="椭圆形" fill="#593220" cx="195.246094" cy="341" r="36"></circle>
                            <circle id="椭圆形备份" fill="#593220" cx="473.246094" cy="341" r="36"></circle>
                            <path d="M334.246094,455 C376.219735,455 410.246094,437.800781 410.246094,398 C410.246094,358.199219 376.219735,341 334.246094,341 C292.272453,341 258.246094,357.96875 258.246094,398 C258.246094,438.03125 292.272453,455 334.246094,455 Z" id="椭圆形" fill="#F9EBD3" opacity="0.777134487"></path>
                            <circle id="椭圆形" fill="#593220" cx="336.746094" cy="377.5" r="20.5"></circle>
                            <path d="M336.746094,387.925781 C323.730469,410.378906 310.904948,421.605469 298.269531,421.605469" id="路径" stroke="#593220" stroke-width="15" stroke-linecap="round"></path>
                            <path d="M376.722656,387.925781 C363.707031,410.378906 350.88151,421.605469 338.246094,421.605469" id="路径" stroke="#593220" stroke-width="15" stroke-linecap="round" transform="translate(357.484375, 404.765625) scale(-1, 1) translate(-357.484375, -404.765625) "></path>
                        </g>
                    </g>
                </g>
            </g>
        </g>
    </g>
</svg>